<?xml version="1.0" encoding="UTF-8" standalone="no"?>
<!DOCTYPE svg PUBLIC "-//W3C//DTD SVG 1.1//EN" "http://www.w3.org/Graphics/SVG/1.1/DTD/svg11.dtd">
<!-- Created with Vectornator (http://vectornator.io/) -->
<svg height="100%" stroke-miterlimit="10" style="fill-rule:nonzero;clip-rule:evenodd;stroke-linecap:round;stroke-linejoin:round;" version="1.1" viewBox="0 0 1024 1024" width="100%" xml:space="preserve" xmlns="http://www.w3.org/2000/svg" xmlns:vectornator="http://vectornator.io" xmlns:xlink="http://www.w3.org/1999/xlink">
<defs/>
<g id="Layer-1" vectornator:layerName="Layer 1">
<g opacity="1">
<g opacity="1">
<path d="M761.251 307.084C758.976 300.772 831.201 260.035 840.438 258.422C852.203 256.368 919.779 395.46 917.036 400.113C914.293 404.766 837.27 449.047 837.656 439.511C837.862 434.41 762.016 309.209 761.251 307.084Z" fill="#ab1887" fill-rule="nonzero" stroke="none"/>
<path d="M839.656 253.844C838.55 254.004 837.465 254.374 836.375 254.781C833.636 255.806 830.974 257.071 828.344 258.344C817.085 263.794 806.166 269.965 795.375 276.281C789.239 279.873 783.175 283.586 777.219 287.469C772.479 290.558 767.726 293.725 763.344 297.312C761.154 299.105 758.703 301.098 757.375 303.656C756.809 304.746 757.394 303.655 756.75 308.125C756.972 309.074 757.517 309.828 758.188 310.438C761.023 315.305 761.208 315.643 762.844 318.375C767.17 325.598 771.503 332.786 775.844 340C789.268 362.309 802.699 384.631 815.812 407.125C820.845 415.758 825.912 424.374 830.625 433.188C831.815 435.413 833.157 437.673 834 440.062C833.971 439.922 833.961 439.951 833.938 439.75C833.933 439.715 833.936 439.621 833.938 439.656C834.051 441.413 834.797 442.893 836.344 443.812C837.846 444.706 839.706 444.686 841.375 444.438C844.323 443.999 847.207 442.925 849.969 441.844C855.383 439.725 860.609 437.177 865.812 434.594C871.957 431.544 878.023 428.34 884.031 425.031C893.313 419.92 902.532 414.635 911.469 408.938C913.568 407.599 915.674 406.258 917.656 404.75C918.902 403.802 920.157 402.764 920.719 401.25C921.254 399.807 920.871 398.145 920.5 396.719C920.014 394.851 919.392 393.026 918.719 391.219C916.11 384.216 913.097 377.34 910.094 370.5C903.786 356.134 896.967 342.009 889.906 328C882.949 314.196 875.705 300.51 867.969 287.125C863.172 278.826 858.28 270.481 852.469 262.844C851.003 260.917 849.46 259.031 847.719 257.344C846.366 256.033 844.836 254.752 843.031 254.125C841.886 253.727 840.762 253.683 839.656 253.844ZM840.281 263.312C841.563 264.207 842.67 265.527 843.625 266.688C845.948 269.511 848.017 272.546 850.031 275.594C856.18 284.895 861.713 294.614 867.094 304.375C878.513 325.09 889.208 346.205 899.438 367.531C902.901 374.752 906.38 381.984 909.469 389.375C910.373 391.538 911.22 393.707 912.031 395.906C912.374 396.836 912.641 397.793 912.906 398.75C912.179 399.331 911.417 399.871 910.656 400.406C907.965 402.301 905.2 404.074 902.406 405.812C891.364 412.685 880.012 419.129 868.438 425.062C861.52 428.609 854.54 432.132 847.281 434.938C845.625 435.578 843.934 436.191 842.219 436.656C841.749 436.784 841.291 436.877 840.812 436.969C840.625 436.52 840.428 436.051 840.25 435.656C839.49 433.975 838.634 432.323 837.781 430.688C834.756 424.886 831.532 419.195 828.312 413.5C815.976 391.68 803.277 370.07 790.562 348.469C784.727 338.554 778.865 328.666 773.031 318.75C771.179 315.603 769.336 312.438 767.5 309.281C767.09 308.577 766.687 307.863 766.281 307.156C766.592 306.826 766.918 306.496 767.25 306.188C768.272 305.239 769.339 304.358 770.438 303.5C773.913 300.786 777.565 298.324 781.25 295.906C792.631 288.438 804.458 281.579 816.406 275.062C821.947 272.041 827.521 269.091 833.219 266.375C835.011 265.521 836.817 264.685 838.656 263.938C839.193 263.719 839.733 263.501 840.281 263.312Z" fill="#ab1887" stroke="none"/>
</g>
<g opacity="1">
<path d="M749.844 307.688C748.683 307.596 747.342 307.965 746.219 308.219C744.012 308.717 741.846 309.425 739.719 310.188C732.196 312.885 724.924 316.276 717.719 319.719C705.121 325.739 692.729 332.189 680.406 338.75C665.169 346.862 650.062 355.192 635 363.625C589.561 389.065 544.62 415.412 499.938 442.156C459.983 466.071 420.203 490.297 380.75 515.031C356.306 530.356 331.921 545.834 308 561.969C300.84 566.798 293.713 571.691 286.781 576.844C284.264 578.715 281.777 580.6 279.406 582.656C278.224 583.682 276.979 584.745 276.031 586C273.602 589.218 274.236 593.456 275.094 597.125C276.809 604.459 279.908 611.51 282.938 618.375C288.609 631.226 294.945 643.78 301.281 656.312C309.371 672.314 317.648 688.215 326.094 704.031C330.163 711.652 334.238 719.297 338.5 726.812C339.385 728.374 340.248 729.927 341.219 731.438C341.476 731.837 341.773 732.365 342.125 732.688C342.491 733.023 342.835 733.408 343.281 733.625C343.853 733.903 344.497 734.027 345.125 734.125C346.23 734.297 347.533 733.723 348.531 733.312C350.477 732.512 352.376 731.548 354.25 730.594C361.157 727.078 367.917 723.301 374.688 719.531C402.187 704.219 429.458 688.483 456.719 672.75C547.937 620.103 638.741 566.741 729.281 512.938C754.356 498.037 779.427 483.132 804.344 467.969C810.861 464.003 817.365 460.017 823.812 455.938C825.847 454.65 827.9 453.378 829.875 452C830.584 451.506 831.644 450.886 832.094 450.125C832.422 449.569 832.731 448.997 832.906 448.375C833.034 447.919 832.972 447.442 832.969 446.969C832.964 446.255 832.605 445.43 832.344 444.781C831.626 442.996 830.768 441.281 829.906 439.562C825.88 431.534 821.518 423.647 817.188 415.781C802.303 388.748 786.98 361.939 771.062 335.5C767.226 329.128 763.382 322.737 759.281 316.531C758.069 314.696 756.831 312.853 755.469 311.125C755.368 310.997 754.872 310.659 754.812 310.594C754.126 308.914 752.49 307.698 750.562 307.688C749.852 307.687 750.297 307.723 749.844 307.688ZM749.094 317.094C749.707 317.908 750.299 318.753 750.875 319.594C753.074 322.804 755.154 326.078 757.219 329.375C762.957 338.541 768.514 347.838 774 357.156C787.197 379.573 800.208 402.115 812.75 424.906C815.339 429.612 817.909 434.308 820.406 439.062C821.626 441.384 822.786 443.783 823.875 446.188C823.781 446.25 823.687 446.313 823.594 446.375C822.224 447.284 820.824 448.148 819.438 449.031C815.577 451.491 811.707 453.906 807.812 456.312C796.299 463.427 784.707 470.466 773.125 477.469C737.328 499.111 701.411 520.528 665.438 541.875C592.241 585.31 518.916 628.55 445.125 670.969C422.12 684.193 399.082 697.376 375.844 710.188C368.61 714.176 361.346 718.127 354 721.906C351.776 723.05 349.551 724.167 347.281 725.219C347.13 725.289 346.965 725.337 346.812 725.406C346.155 724.277 345.511 723.141 344.875 722C342.269 717.327 339.756 712.602 337.25 707.875C329.166 692.623 321.277 677.255 313.562 661.812C308.847 652.374 304.159 642.919 299.594 633.406C295.663 625.215 291.788 616.986 288.375 608.562C286.601 604.184 284.843 599.709 283.781 595.094C283.561 594.135 283.356 593.17 283.281 592.188C283.26 591.9 283.266 591.628 283.281 591.344C283.6 591.037 283.896 590.674 284.219 590.375C284.986 589.663 285.782 588.973 286.594 588.312C290.4 585.214 294.397 582.357 298.406 579.531C302.951 576.328 307.543 573.197 312.156 570.094C323.309 562.591 334.593 555.29 345.906 548.031C388.556 520.667 431.747 494.128 475.125 467.938C520.693 440.424 566.519 413.293 612.75 386.906C642.908 369.693 673.206 352.662 704.125 336.844C714.322 331.627 724.586 326.466 735.125 321.969C738.351 320.592 741.6 319.274 744.938 318.188C746.034 317.831 747.156 317.506 748.281 317.25C748.562 317.186 748.824 317.141 749.094 317.094Z" fill="#000000" stroke="none"/>
</g>
<g opacity="1">
<path d="M266.562 594.562C265.961 594.557 265.341 594.663 264.75 594.906C264.359 595.068 265.026 594.982 264.375 595.062C264.03 595.105 263.745 595.37 263.438 595.531C262.648 595.946 261.889 596.399 261.156 596.906C258.62 598.664 256.319 600.776 254.094 602.906C247.209 609.496 240.942 616.736 234.781 624C229.296 630.467 223.915 637.03 218.625 643.656C215.167 647.988 211.744 652.341 208.344 656.719C206.305 659.344 204.272 661.987 202.25 664.625C201.669 665.383 201.08 666.147 200.5 666.906C199.917 667.669 199.332 668.424 198.75 669.188C197.699 670.567 196.506 671.905 196.344 673.719C196.215 675.162 196.692 676.61 197.656 677.688C197.918 677.981 198.217 678.234 198.531 678.469C198.645 678.554 198.76 678.635 198.875 678.719C198.924 678.755 199.049 678.849 199 678.812C199.592 679.271 200.18 679.733 200.75 680.219C201.623 680.962 202.464 681.759 203.25 682.594C206.935 686.508 210.11 690.853 212.906 695.438C216.587 701.472 219.71 707.861 222.719 714.25C227.597 724.609 232.671 734.86 237.344 745.312C237.832 746.406 238.332 747.497 238.812 748.594C239.278 749.655 239.733 750.746 240.188 751.812C241.204 754.197 241.905 756.862 244.906 757.438C246.271 757.699 247.993 757.178 249.312 756.938C251.816 756.481 254.311 756.028 256.812 755.562C265.309 753.981 273.811 752.341 282.281 750.625C290.141 749.032 297.985 747.402 305.812 745.656C312.888 744.079 319.953 742.446 326.938 740.5C329.082 739.902 331.219 739.259 333.344 738.594C333.816 738.446 334.665 738.334 335.031 738C335.601 737.481 336.117 736.894 336.656 736.344C336.765 735.592 336.931 734.819 337 734.062C337.029 733.745 336.778 733.32 336.656 733.031C336.149 731.829 335.473 730.672 334.844 729.531C333.918 727.851 332.973 726.203 332.031 724.531C331.574 723.719 331.083 722.811 330.625 722C329.835 720.601 329.04 719.211 328.25 717.812C322.699 707.978 317.194 698.118 311.875 688.156C307.84 680.6 303.9 673.014 300.344 665.219C292.637 648.323 285.317 631.241 277.969 614.188C276.346 610.422 274.711 606.66 273.062 602.906C272.798 602.303 272.549 601.726 272.281 601.125C271.901 600.27 271.45 599.408 271.031 598.531C270.978 598.156 270.964 597.773 270.812 597.406C270.083 595.634 268.366 594.58 266.562 594.562ZM264.875 605.75C265.126 606.303 265.376 606.853 265.625 607.406C267.151 610.8 268.648 614.192 270.156 617.594C274.822 628.116 279.511 638.636 284.25 649.125C288.285 658.057 292.283 667.024 296.688 675.781C302.833 688.001 309.536 699.947 316.281 711.844C319.372 717.294 322.493 722.712 325.594 728.156C326.419 729.606 327.216 731.076 328.031 732.531C326.555 732.972 325.08 733.375 323.594 733.781C317.78 735.372 311.913 736.778 306.031 738.094C291.398 741.367 276.655 743.992 261.875 746.5C257.952 747.166 254.027 747.775 250.094 748.375C249.451 748.473 248.799 748.56 248.156 748.656C248.139 748.613 248.111 748.574 248.094 748.531C247.653 747.427 247.202 746.319 246.75 745.219C245.143 741.305 243.461 737.449 241.719 733.594C238.702 726.918 235.51 720.321 232.469 713.656C228.256 704.423 223.947 695.138 218.281 686.688C215.538 682.595 212.467 678.636 208.969 675.156C208.395 674.586 207.764 674.064 207.156 673.531C207.681 672.822 208.246 672.132 208.781 671.438C211.66 667.701 214.533 663.966 217.438 660.25C226.575 648.559 235.828 636.948 245.531 625.719C250.323 620.174 255.21 614.671 260.5 609.594C261.899 608.251 263.357 606.962 264.875 605.75ZM191.969 676.906C190.796 677.072 189.706 677.667 188.938 678.688C187.964 679.978 189.246 679.229 187.969 679.969C187.502 680.239 187.293 680.851 186.969 681.281C185.995 682.572 185.036 683.865 184.062 685.156C180.846 689.422 177.66 693.684 174.469 697.969C162.621 713.876 150.989 729.969 139.75 746.312C138.504 748.125 137.26 749.957 136.031 751.781C135.277 752.9 134.524 753.998 133.781 755.125C133.149 756.085 132.525 757.062 131.906 758.031C130.935 759.551 129.96 761.073 129.094 762.656C128.66 763.45 128.171 764.314 128.031 765.219C127.875 766.236 128.093 767.312 128.438 768.281C128.611 768.768 129.225 769.489 129.594 769.844C131.497 771.672 134.502 771.933 137 772.094C143.293 772.499 149.678 771.943 155.938 771.375C164.929 770.559 173.896 769.408 182.844 768.219C191.598 767.055 200.349 765.887 209.094 764.656C215.309 763.781 221.511 762.869 227.719 761.938C229.294 761.701 230.863 761.462 232.438 761.219C233.439 761.064 234.836 760.952 235.812 760.594C236.365 760.391 236.884 760.094 237.312 759.688C239.831 757.294 237.867 754.067 236.812 751.531C236.522 750.833 236.232 750.134 235.938 749.438C235.485 748.366 235.025 747.317 234.562 746.25C234.087 745.154 233.609 744.03 233.125 742.938C232.454 741.425 231.78 739.943 231.094 738.438C228.153 731.98 225.087 725.557 222.156 719.094C218.09 710.128 213.99 701.117 208.562 692.875C205.81 688.694 202.707 684.515 199.031 681.094C198.442 680.545 197.75 679.977 197.125 679.469C197.005 679.371 196.498 678.976 196.406 678.906C196.128 678.496 195.824 678.096 195.406 677.781C194.385 677.013 193.141 676.741 191.969 676.906ZM193.625 687.875C193.716 687.961 193.816 688.037 193.906 688.125C195.887 690.059 197.673 692.203 199.344 694.406C203.881 700.39 207.448 707.074 210.781 713.781C213.45 719.15 215.956 724.587 218.531 730C220.734 734.632 223 739.221 225.156 743.875C226.623 747.041 228.054 750.235 229.438 753.438C229.532 753.656 229.625 753.875 229.719 754.094C228.159 754.346 226.592 754.599 225.031 754.844C219.381 755.732 213.726 756.572 208.062 757.375C190.885 759.81 173.665 761.728 156.344 762.75C151.442 763.039 146.506 763.298 141.594 763.25C140.915 763.243 140.241 763.181 139.562 763.156C140.617 761.539 141.667 759.911 142.75 758.312C153.317 742.716 164.359 727.439 175.5 712.25C180.465 705.48 185.458 698.713 190.5 692C191.539 690.617 192.586 689.258 193.625 687.875Z" fill="#000000" stroke="none"/>
</g>
<g opacity="1">
<path d="M192.625 681.473C161.318 722.829 131.853 764.969 132.495 766.27C134.561 770.46 184.739 765.082 235.009 757.03C231.788 749.073 227.891 740.469 223.078 730.474C222.142 728.531 217.436 718.333 216.994 717.386C209.918 702.228 204.82 693.501 197.726 685.875C196.165 684.197 194.485 682.808 192.625 681.473Z" fill="#78105e" fill-rule="nonzero" stroke="none"/>
<path d="M191.969 676.906C190.796 677.072 189.706 677.667 188.938 678.688C187.964 679.978 189.246 679.229 187.969 679.969C187.502 680.239 187.293 680.851 186.969 681.281C185.995 682.572 185.036 683.865 184.062 685.156C180.846 689.422 177.66 693.684 174.469 697.969C162.621 713.876 150.989 729.969 139.75 746.312C138.504 748.125 137.26 749.957 136.031 751.781C135.277 752.9 134.524 753.998 133.781 755.125C133.149 756.085 132.525 757.062 131.906 758.031C130.935 759.551 129.96 761.073 129.094 762.656C128.66 763.45 128.171 764.314 128.031 765.219C127.875 766.236 128.093 767.312 128.438 768.281C128.611 768.768 129.225 769.489 129.594 769.844C131.497 771.672 134.502 771.933 137 772.094C143.293 772.499 149.678 771.943 155.938 771.375C164.929 770.559 173.896 769.408 182.844 768.219C191.598 767.055 200.349 765.887 209.094 764.656C215.309 763.781 221.511 762.869 227.719 761.938C229.294 761.701 230.863 761.462 232.438 761.219C233.439 761.064 234.836 760.952 235.812 760.594C236.365 760.391 236.884 760.094 237.312 759.688C239.831 757.294 237.867 754.067 236.812 751.531C236.522 750.833 236.232 750.134 235.938 749.438C235.485 748.366 235.025 747.317 234.562 746.25C234.087 745.154 233.609 744.03 233.125 742.938C232.454 741.425 231.78 739.943 231.094 738.438C228.153 731.98 225.087 725.557 222.156 719.094C218.09 710.128 213.99 701.117 208.562 692.875C205.81 688.694 202.707 684.515 199.031 681.094C198.442 680.545 197.75 679.977 197.125 679.469C197.005 679.371 196.498 678.976 196.406 678.906C196.128 678.496 195.824 678.096 195.406 677.781C194.385 677.013 193.141 676.741 191.969 676.906ZM193.625 687.875C193.716 687.961 193.816 688.037 193.906 688.125C195.887 690.059 197.673 692.203 199.344 694.406C203.881 700.39 207.448 707.074 210.781 713.781C213.45 719.15 215.956 724.587 218.531 730C220.734 734.632 223 739.221 225.156 743.875C226.623 747.041 228.054 750.235 229.438 753.438C229.532 753.656 229.625 753.875 229.719 754.094C228.159 754.346 226.592 754.599 225.031 754.844C219.381 755.732 213.726 756.572 208.062 757.375C190.885 759.81 173.665 761.728 156.344 762.75C151.442 763.039 146.506 763.298 141.594 763.25C140.915 763.243 140.241 763.181 139.562 763.156C140.617 761.539 141.667 759.911 142.75 758.312C153.317 742.716 164.359 727.439 175.5 712.25C180.465 705.48 185.458 698.713 190.5 692C191.539 690.617 192.586 689.258 193.625 687.875Z" fill="#78105e" stroke="none"/>
</g>
</g>
</g>
</svg>
