<?xml version="1.0" encoding="UTF-8" standalone="no"?>
<!DOCTYPE svg PUBLIC "-//W3C//DTD SVG 1.1//EN" "http://www.w3.org/Graphics/SVG/1.1/DTD/svg11.dtd">
<!-- Created with Vectornator (http://vectornator.io/) -->
<svg height="100%" stroke-miterlimit="10" style="fill-rule:nonzero;clip-rule:evenodd;stroke-linecap:round;stroke-linejoin:round;" version="1.1" viewBox="0 0 1024 1024" width="100%" xml:space="preserve" xmlns="http://www.w3.org/2000/svg" xmlns:vectornator="http://vectornator.io" xmlns:xlink="http://www.w3.org/1999/xlink">
<defs/>
<g id="Layer-1" vectornator:layerName="Layer 1">
<g opacity="1">
<g opacity="1">
<path d="M669.344 207.062C663.235 207.076 657.118 207.339 651.031 207.875C631.107 209.629 611.428 214.191 592.75 221.344C545.211 239.55 504.797 274.609 480.188 319.188C472.603 332.927 466.527 347.455 462.062 362.5C460.833 366.645 462.043 362.506 457.156 382.312C457.007 383.037 457.057 383.745 457.156 384.438C456.74 386.712 456.509 387.976 456.219 389.781C455.632 393.436 455.121 397.133 454.719 400.812C453.275 414.032 453.042 427.363 454.031 440.625C458.402 499.208 486.97 554.341 532.156 591.844C552.22 608.496 575.309 621.436 599.969 629.906C624.225 638.238 649.984 642.267 675.625 641.688C696.779 641.209 717.842 637.555 737.938 630.938C774.187 619.001 807.046 597.353 832.375 568.812C848.797 550.308 861.997 528.994 871.281 506.062C879.11 486.725 884.192 466.264 886.219 445.5C888.54 421.726 887.052 397.604 881.562 374.344C868.624 319.512 834.161 271.1 786.594 240.906C767.245 228.624 745.962 219.45 723.75 213.812C705.987 209.304 687.669 207.021 669.344 207.062ZM675.844 219.688C699.024 220.347 722.119 224.941 743.781 233.219C762.633 240.422 780.381 250.461 796.312 262.844C842.911 299.064 872.273 354.664 875.969 413.562C877.57 439.077 874.22 464.889 866.5 489.25C850.881 538.535 816.233 580.389 771.156 605.562C751.828 616.356 730.755 623.994 709 628.094C685.405 632.54 661.053 632.725 637.375 628.781C613.458 624.798 590.264 616.618 569.188 604.625C539.337 587.639 513.941 563.073 495.875 533.875C479.838 507.957 469.593 478.518 466.219 448.219C464.576 433.467 464.543 418.574 466.094 403.812C466.487 400.067 466.546 400.64 468.781 386.156C468.987 385.719 469.242 385.307 469.344 384.812C470.842 377.86 470.305 380.178 470.844 377.875C471.641 374.469 472.532 371.08 473.5 367.719C476.974 355.652 481.57 343.887 487.188 332.656C510.999 285.053 553.2 248.256 603.469 230.844C626.669 222.808 651.3 218.99 675.844 219.688Z" fill="#000000" stroke="none"/>
</g>
<g opacity="1">
<g opacity="1">
<path d="M394.625 374.5C378.929 374.28 363.205 375.789 347.844 379C331.515 382.414 315.579 387.771 300.5 394.906C244.984 421.174 202.71 470.751 184.469 529.281C179.7 544.582 176.579 560.353 175.125 576.312C174.724 580.712 175.132 576.329 174.188 597.156C174.182 597.904 174.357 598.584 174.594 599.25C174.629 601.685 174.621 602.963 174.688 604.844C174.821 608.624 175.055 612.388 175.375 616.156C176.525 629.683 178.891 643.114 182.438 656.219C197.335 711.271 233.299 759.407 282.312 788.688C304.159 801.739 328.334 810.836 353.375 815.375C375.675 819.418 398.65 819.881 421.094 816.719C441.134 813.895 460.729 808.179 479.156 799.812C495.112 792.568 510.179 783.325 523.906 772.438C552.441 749.806 575.131 720.071 589.594 686.656C604.785 651.559 610.914 612.598 607.25 574.531C604.685 547.888 597.565 521.765 585.906 497.656C561.694 447.59 518.65 407.668 466.531 388.062C448.479 381.272 429.494 376.992 410.281 375.312C405.07 374.857 399.857 374.573 394.625 374.5ZM396.625 387.062C401.981 387.188 407.325 387.511 412.656 388.062C431.785 390.041 450.629 394.788 468.406 402.125C501.259 415.684 530.261 437.937 552.188 465.875C569.633 488.103 582.578 513.857 590.094 541.094C597.364 567.441 599.409 595.217 596.438 622.375C593.427 649.892 584.875 676.814 571.531 701.062C555.362 730.445 532.156 755.849 504.25 774.469C490.308 783.771 475.232 791.359 459.438 796.969C442.194 803.093 424.069 806.835 405.812 808.062C386.067 809.39 366.136 807.856 346.844 803.438C332.579 800.171 318.681 795.323 305.469 789.031C252.96 764.025 213.035 717.031 195.875 661.562C191.388 647.058 188.471 632.091 187.125 616.969C186.783 613.129 186.933 613.68 186.312 598.719C186.439 598.233 186.621 597.775 186.625 597.25C186.744 589.967 186.669 592.39 186.75 589.969C186.87 586.387 187.078 582.79 187.375 579.219C188.44 566.405 190.665 553.7 194 541.281C207.408 491.352 239.155 447.221 282.656 419.188C302.828 406.188 325.3 396.782 348.75 391.656C364.457 388.223 380.556 386.686 396.625 387.062Z" fill="#000000" stroke="none"/>
</g>
<path d="M307.753 398.259C120.602 491.019 193.264 675.396 200.115 692.431" fill="none" opacity="1" stroke="#78105e" stroke-linecap="square" stroke-linejoin="bevel" stroke-width="24.9"/>
<path d="M405.989 814.686C561.599 792.957 639.45 627.491 589.265 515.384" fill="none" opacity="1" stroke="#b81c92" stroke-linecap="square" stroke-linejoin="bevel" stroke-width="24.9"/>
</g>
<path d="M855.83 325.849C823.123 259.75 720.372 191.741 600.749 230.78C441.348 282.8 460.778 466.637 462.88 478.416" fill="none" opacity="1" stroke="#c978b5" stroke-linecap="square" stroke-linejoin="bevel" stroke-width="24.9"/>
</g>
</g>
</svg>
