<?xml version="1.0" encoding="UTF-8" standalone="no"?>
<!DOCTYPE svg PUBLIC "-//W3C//DTD SVG 1.1//EN" "http://www.w3.org/Graphics/SVG/1.1/DTD/svg11.dtd">
<!-- Created with Vectornator (http://vectornator.io/) -->
<svg height="100%" stroke-miterlimit="10" style="fill-rule:nonzero;clip-rule:evenodd;stroke-linecap:round;stroke-linejoin:round;" version="1.1" viewBox="0 0 1024 1024" width="100%" xml:space="preserve" xmlns="http://www.w3.org/2000/svg" xmlns:vectornator="http://vectornator.io" xmlns:xlink="http://www.w3.org/1999/xlink">
<defs/>
<g id="Layer-1" vectornator:layerName="Layer 1">
<g opacity="1">
<path d="M509.153 148.149C509.153-17.2468 509.153 861.96 509.153 861.96" fill="none" opacity="1" stroke="#000000" stroke-linecap="round" stroke-linejoin="bevel" stroke-width="16.8216"/>
<g opacity="1">
<path d="M798.719 291.094C795.917 291.205 793.111 291.909 790.375 292.469C786.037 293.356 781.724 294.301 777.406 295.281C764.182 298.283 750.992 301.463 737.812 304.656C698.757 314.118 659.773 323.874 620.781 333.594C596.778 339.577 572.785 345.612 548.75 351.469C520.19 358.428 491.57 365.205 463.031 372.25C394.634 389.135 326.363 406.512 258.094 423.906C255.843 424.479 254.49 426.78 255.062 429.031C255.635 431.282 257.937 432.635 260.188 432.062C325.116 415.581 390.095 399.293 455 382.719C487.171 374.503 519.259 366.001 551.438 357.812C577.984 351.057 604.585 344.496 631.188 337.969C668.616 328.786 706.066 319.706 743.594 310.938C755.975 308.045 768.357 305.172 780.781 302.469C784.84 301.586 788.921 300.722 793 299.938C794.952 299.562 797.002 299.039 799 299C801.182 298.928 802.885 297.088 802.812 294.906C802.74 292.724 800.901 291.021 798.719 291.094Z" fill="#000000" stroke="none"/>
</g>
<g opacity="1">
<path d="M261.938 423.938C260.303 424.06 258.838 425.131 258.281 426.781C254.139 439.019 250.108 451.293 246.062 463.562C239.9 482.254 233.768 500.96 227.812 519.719C223.759 532.487 219.968 545.349 215.938 558.125C211.672 571.648 207.182 585.083 202.688 598.531C197.461 614.168 192.183 629.777 186.844 645.375C185.066 650.568 183.279 655.756 181.469 660.938C180.438 663.886 179.501 666.946 178.25 669.812C177.4 671.824 178.333 674.15 180.344 675C182.355 675.85 184.682 674.886 185.531 672.875C187.105 669.071 188.275 665.062 189.562 661.156C191.669 654.765 193.742 648.372 195.812 641.969C202.037 622.718 208.189 603.452 214.469 584.219C217.082 576.216 219.692 568.219 222.406 560.25C227.303 545.871 232.45 531.558 237.281 517.156C247.072 487.971 256.437 458.646 266.25 429.469C266.993 427.268 265.794 424.868 263.594 424.125C263.044 423.939 262.482 423.897 261.938 423.938Z" fill="#000000" stroke="none"/>
</g>
<g opacity="1">
<path d="M262.688 423.938C262.144 423.882 261.586 423.923 261.031 424.094C258.811 424.777 257.567 427.155 258.25 429.375C262.176 442.181 266.287 454.901 270.375 467.656C276.595 487.062 282.876 506.467 289.375 525.781C294.803 541.914 300.556 557.913 305.844 574.094C312.825 595.46 319.668 616.877 326.531 638.281C328.888 645.631 331.24 653.004 333.625 660.344C334.974 664.494 336.234 668.698 337.781 672.781C338.57 674.817 340.87 675.82 342.906 675.031C344.942 674.243 345.945 671.942 345.156 669.906C343.791 666.484 342.666 662.952 341.469 659.469C339.469 653.649 337.508 647.827 335.531 642C329.714 624.851 323.94 607.691 318.25 590.5C314.695 579.76 311.133 569.014 307.75 558.219C303.215 543.748 298.952 529.208 294.375 514.75C285.097 485.441 275.349 456.25 266.281 426.875C265.769 425.21 264.318 424.104 262.688 423.938Z" fill="#000000" stroke="none"/>
</g>
<g opacity="1">
<path d="M157.213 646.518C114.652 644.26 177.203 739.835 264.104 737.488C338.47 735.479 408.788 645.592 363.625 645.412C363.625 645.412 312.445 648.788 259.982 648.788C207.519 648.788 157.213 646.518 157.213 646.518Z" fill="#78105e" fill-rule="nonzero" stroke="none"/>
<path d="M364.125 643.562C362.895 643.568 361.658 643.643 360.406 643.719C358.269 643.848 356.138 643.945 354 644.062C352.109 644.166 350.204 644.278 348.312 644.375C345.704 644.509 343.109 644.627 340.5 644.75C318.027 645.812 295.529 646.531 273.031 646.719C250.64 646.906 228.227 646.515 205.844 645.938C193.279 645.613 180.716 645.216 168.156 644.719C165.292 644.605 162.426 644.501 159.562 644.375C159.029 644.351 158.947 644.341 157.625 644.281C157.505 644.257 157.439 644.13 157.312 644.125C152.045 644.364 153.772 644.064 152.062 644.344C150.544 644.592 149.037 645.033 147.656 645.719C146.698 646.195 145.795 646.783 145 647.5C139.62 652.352 140.777 660.543 142.906 666.656C145.387 673.778 149.559 680.296 154.125 686.25C160.639 694.744 168.358 702.301 176.719 708.969C204.198 730.885 240.687 744.029 276 738.844C301.062 735.164 324.554 722.981 344.062 707.125C354.849 698.358 364.917 688.258 372.375 676.469C375.876 670.935 379.328 664.319 379.719 657.656C379.821 655.905 379.684 654.126 379.188 652.438C378.809 651.15 378.215 649.917 377.406 648.844C375.106 645.789 371.472 644.401 367.812 643.812C366.56 643.611 365.355 643.557 364.125 643.562ZM363.594 647.312C363.638 647.31 363.764 647.313 363.719 647.312C364.887 647.339 366.062 647.377 367.219 647.562C371.232 648.205 374.82 649.883 375.719 654.188C375.94 655.247 376.001 656.328 375.938 657.406C375.768 660.268 374.875 663.089 373.781 665.719C372.319 669.235 370.392 672.555 368.281 675.719C361.086 686.501 351.562 695.83 341.438 703.875C322.512 718.914 299.444 730.692 275.344 734.156C243.476 738.737 210.737 727.814 185.031 709.188C175.874 702.552 167.384 694.862 160.188 686.125C156.061 681.116 152.292 675.734 149.469 669.875C148.893 668.68 148.35 667.457 147.875 666.219C147.449 665.108 147.095 663.992 146.781 662.844C145.589 658.482 146.784 662.831 157.125 648.906C157.247 648.911 157.32 648.794 157.438 648.781C157.956 648.803 158.277 648.807 158.406 648.812C159.825 648.87 161.237 648.946 162.656 649C169.469 649.258 176.279 649.486 183.094 649.688C210.895 650.51 238.718 650.973 266.531 650.781C295 650.585 323.481 649.576 351.906 648C354.506 647.856 357.119 647.719 359.719 647.562C360.629 647.508 361.528 647.464 362.438 647.406C362.738 647.387 363.043 647.363 363.344 647.344C363.455 647.337 363.488 647.319 363.594 647.312Z" fill="#78105e" stroke="none"/>
</g>
<g opacity="1">
<path d="M798.75 291.5C797.116 291.622 795.651 292.693 795.094 294.344C790.951 306.581 786.92 318.887 782.875 331.156C776.713 349.847 770.611 368.554 764.656 387.312C760.603 400.081 756.811 412.912 752.781 425.688C748.515 439.21 743.995 452.677 739.5 466.125C734.274 481.761 728.996 497.371 723.656 512.969C721.879 518.162 720.092 523.35 718.281 528.531C717.251 531.48 716.313 534.508 715.062 537.375C714.213 539.386 715.176 541.713 717.188 542.562C719.199 543.412 721.494 542.48 722.344 540.469C723.918 536.665 725.088 532.656 726.375 528.75C728.481 522.359 730.555 515.934 732.625 509.531C738.85 490.28 745.001 471.015 751.281 451.781C753.894 443.779 756.505 435.782 759.219 427.812C764.115 413.434 769.262 399.152 774.094 384.75C783.885 355.565 793.249 326.24 803.062 297.062C803.805 294.862 802.607 292.461 800.406 291.719C799.856 291.533 799.295 291.459 798.75 291.5Z" fill="#000000" stroke="none"/>
</g>
<g opacity="1">
<path d="M799.5 291.531C798.957 291.476 798.399 291.517 797.844 291.688C795.624 292.37 794.38 294.718 795.062 296.938C798.988 309.744 803.1 322.495 807.188 335.25C813.407 354.656 819.689 374.029 826.188 393.344C831.616 409.477 837.369 425.506 842.656 441.688C849.638 463.053 856.48 484.471 863.344 505.875C865.7 513.224 868.052 520.566 870.438 527.906C871.786 532.057 873.047 536.261 874.594 540.344C875.382 542.38 877.683 543.414 879.719 542.625C881.755 541.836 882.758 539.536 881.969 537.5C880.604 534.078 879.478 530.545 878.281 527.062C876.281 521.243 874.32 515.421 872.344 509.594C866.526 492.445 860.753 475.254 855.062 458.062C851.508 447.323 847.945 436.608 844.562 425.812C840.028 411.342 835.764 396.771 831.188 382.312C821.91 353.003 812.162 323.844 803.094 294.469C802.582 292.804 801.13 291.698 799.5 291.531Z" fill="#000000" stroke="none"/>
</g>
<path d="M429.706 869.832L517.413 868.287L588.6 867.034" fill="none" opacity="1" stroke="#000000" stroke-linecap="round" stroke-linejoin="round" stroke-width="16.8216"/>
<g opacity="1">
<path d="M692.038 536.439C649.476 534.181 712.028 629.757 798.928 627.409C873.294 625.4 943.613 535.513 898.449 535.334C898.449 535.334 847.27 538.709 794.807 538.709C742.344 538.709 692.038 536.439 692.038 536.439Z" fill="#78105e" fill-rule="nonzero" stroke="none"/>
<path d="M898.938 533.469C897.707 533.475 896.47 533.549 895.219 533.625C893.082 533.754 890.95 533.883 888.812 534C886.921 534.104 885.017 534.215 883.125 534.312C880.517 534.447 877.921 534.564 875.312 534.688C852.84 535.75 830.341 536.437 807.844 536.625C785.453 536.812 763.071 536.453 740.688 535.875C728.123 535.551 715.559 535.154 703 534.656C700.136 534.543 697.27 534.408 694.406 534.281C693.889 534.258 693.69 534.241 692.5 534.188C692.364 534.157 692.27 534.037 692.125 534.031C686.858 534.27 688.584 534.002 686.875 534.281C685.356 534.53 683.85 534.97 682.469 535.656C681.511 536.132 680.607 536.721 679.812 537.438C674.433 542.29 675.62 550.449 677.75 556.562C680.231 563.685 684.371 570.202 688.938 576.156C695.452 584.65 703.171 592.239 711.531 598.906C739.01 620.822 775.531 633.935 810.844 628.75C835.905 625.07 859.367 612.887 878.875 597.031C889.662 588.264 899.76 578.164 907.219 566.375C910.719 560.842 914.172 554.226 914.562 547.562C914.665 545.811 914.527 544.032 914.031 542.344C913.653 541.056 913.058 539.824 912.25 538.75C909.95 535.695 906.316 534.307 902.656 533.719C901.404 533.517 900.168 533.463 898.938 533.469ZM898.156 537.25C898.265 537.243 898.334 537.257 898.438 537.25C899.647 537.277 900.864 537.308 902.062 537.5C906.075 538.143 909.664 539.821 910.562 544.125C910.784 545.184 910.814 546.266 910.75 547.344C910.581 550.205 909.688 552.995 908.594 555.625C907.131 559.141 905.204 562.462 903.094 565.625C895.899 576.408 886.405 585.736 876.281 593.781C857.356 608.82 834.257 620.598 810.156 624.062C778.288 628.644 745.55 617.751 719.844 599.125C710.687 592.49 702.228 584.799 695.031 576.062C690.905 571.053 687.136 565.641 684.312 559.781C683.737 558.587 683.194 557.394 682.719 556.156C682.292 555.045 681.907 553.898 681.594 552.75C680.402 548.388 681.597 552.768 691.938 538.844C692.081 538.85 692.175 538.737 692.312 538.719C692.729 538.736 693.098 538.745 693.219 538.75C694.638 538.808 696.081 538.853 697.5 538.906C704.313 539.164 711.123 539.392 717.938 539.594C745.738 540.416 773.561 540.911 801.375 540.719C829.844 540.522 858.294 539.513 886.719 537.938C889.319 537.793 891.932 537.656 894.531 537.5C895.441 537.445 896.34 537.37 897.25 537.312C897.551 537.294 897.856 537.269 898.156 537.25Z" fill="#78105e" stroke="none"/>
</g>
</g>
</g>
</svg>
