<?xml version="1.0" encoding="UTF-8" standalone="no"?>
<!DOCTYPE svg PUBLIC "-//W3C//DTD SVG 1.1//EN" "http://www.w3.org/Graphics/SVG/1.1/DTD/svg11.dtd">
<!-- Created with Vectornator (http://vectornator.io/) -->
<svg height="100%" stroke-miterlimit="10" style="fill-rule:nonzero;clip-rule:evenodd;stroke-linecap:round;stroke-linejoin:round;" version="1.1" viewBox="0 0 1024 1024" width="100%" xml:space="preserve" xmlns="http://www.w3.org/2000/svg" xmlns:vectornator="http://vectornator.io" xmlns:xlink="http://www.w3.org/1999/xlink">
<defs/>
<g id="Layer-1" vectornator:layerName="Layer 1">
<g opacity="1">
<g opacity="1">
<path d="M215.594 182.312C212.033 182.311 209.157 185.189 209.156 188.75C209.431 348 209.694 507.25 209.969 666.5C210.037 706.106 210.119 745.706 210.188 785.312C210.204 794.801 210.202 804.292 210.219 813.781C210.221 815.019 210.217 816.262 210.219 817.5C210.224 820.346 209.73 823.894 212.031 826.062C212.804 826.791 213.775 827.289 214.812 827.5C215.717 827.684 216.797 827.595 217.719 827.594C218.875 827.593 220.031 827.595 221.188 827.594C222.335 827.593 223.477 827.595 224.625 827.594C233.481 827.586 242.331 827.57 251.188 827.562C289.236 827.529 327.295 827.502 365.344 827.469C514.352 827.339 663.336 827.223 812.344 827.094C814.515 827.096 816.279 825.328 816.281 823.156C816.284 820.985 814.547 819.221 812.375 819.219C679.53 818.791 546.689 818.365 413.844 817.938C364.203 817.778 314.547 817.629 264.906 817.469C254.119 817.434 243.35 817.378 232.562 817.344C228.776 817.332 224.974 817.325 221.188 817.312C220.979 817.312 220.771 817.313 220.562 817.312C220.565 816.14 220.56 814.954 220.562 813.781C220.575 808.418 220.581 803.051 220.594 797.688C220.631 782.01 220.682 766.334 220.719 750.656C220.829 704.036 220.921 657.432 221.031 610.812C221.364 470.128 221.699 329.435 222.031 188.75C222.032 185.189 219.155 182.314 215.594 182.312Z" fill="#000000" stroke="none"/>
</g>
<g opacity="1">
<path d="M214.844 147.969C214.409 147.979 213.949 148.033 213.531 148.156C211.03 148.896 209.744 150.946 208.469 153.031C206.549 156.171 204.796 159.412 203.062 162.656C202.303 164.078 201.562 165.511 200.812 166.938C194.771 178.433 188.912 190.032 182.938 201.562C180.905 205.486 178.867 209.403 176.75 213.281C176.102 214.468 175.467 215.647 174.781 216.812C174.47 217.342 174.159 217.942 173.75 218.406C171.587 221.236 172.139 225.275 174.969 227.438C177.798 229.6 181.837 229.079 184 226.25C185.605 224.088 186.761 221.551 187.969 219.156C189.691 215.744 191.347 212.321 193 208.875C197.686 199.11 202.267 189.273 206.938 179.5C209.441 174.261 211.941 169.025 214.562 163.844C214.695 163.582 214.836 163.324 214.969 163.062C215.604 164.709 216.163 166.379 216.781 168.031C217.226 169.219 217.753 170.364 218.25 171.531C222.02 180.378 225.928 189.162 229.719 198C233.625 207.107 237.427 216.269 241.031 225.5C241.788 227.535 244.059 228.57 246.094 227.812C248.129 227.055 249.163 224.785 248.406 222.75C243.863 209.902 238.916 197.223 233.875 184.562C231.243 177.953 228.613 171.329 226.062 164.688C226.047 164.651 226.017 164.526 226.031 164.562C225.983 164.409 225.99 164.418 225.938 164.25C225.871 164.038 225.779 163.785 225.719 163.594C225.256 162.116 224.771 160.646 224.25 159.188C223.936 158.309 223.602 157.372 223.25 156.5C221.781 152.856 219.543 147.862 214.844 147.969Z" fill="#000000" stroke="none"/>
</g>
<g opacity="1">
<path d="M791.906 783.906C790.284 784.207 788.789 785.126 787.781 786.594C785.765 789.529 786.502 793.546 789.438 795.562C797.634 800.979 806.054 806.021 814.594 810.875C819.478 813.651 824.397 816.369 829.344 819.031C831.407 820.141 833.49 821.251 835.562 822.344C836.355 822.761 837.144 823.179 837.938 823.594C833.751 826.185 829.569 828.765 825.375 831.344C819.992 834.654 814.585 837.933 809.188 841.219C800.345 846.601 791.49 851.97 782.531 857.156C780.632 858.21 779.947 860.601 781 862.5C782.054 864.399 784.445 865.085 786.344 864.031C796.145 858.821 805.847 853.393 815.531 847.969C821.521 844.614 827.497 841.261 833.469 837.875C835.412 836.773 837.37 835.667 839.312 834.562C840.577 833.843 841.83 833.126 843.094 832.406C844.157 831.8 845.219 831.2 846.281 830.594C847.43 829.938 848.571 829.251 849.719 828.594C850.659 828.055 851.845 827.539 852.562 826.688C852.876 826.315 853.169 825.911 853.375 825.469C853.607 824.969 853.762 824.451 853.844 823.906C853.92 823.394 853.91 822.858 853.844 822.344C853.791 821.929 853.648 821.515 853.5 821.125C852.61 818.785 849.238 817.473 847.281 816.375C843.543 814.277 839.828 812.16 836.125 810C831.43 807.261 826.758 804.466 822.125 801.625C813.489 796.329 804.995 790.827 796.75 784.938C795.282 783.929 793.529 783.605 791.906 783.906Z" fill="#000000" stroke="none"/>
</g>
<g opacity="1">
<path d="M760.875 271.719C714.169 272.302 667.495 276.519 621.781 286.219C578.673 295.366 536.294 308.954 496.812 328.688C484.301 334.941 472.035 341.66 460.125 349C442.644 359.774 425.936 371.782 410.094 384.844C379.4 410.149 352.167 439.682 329.375 472.281C290.953 527.236 265.054 590.119 247.625 654.625C239.326 685.34 232.995 716.56 227.781 747.938C224.08 770.211 221.1 792.608 217.562 814.906C216.967 818.65 219.538 822.154 223.281 822.75C227.025 823.346 230.529 820.806 231.125 817.062C234.677 794.801 237.659 772.455 241.375 750.219C246.334 720.54 252.322 691.03 260.031 661.938C270.405 622.793 283.771 584.388 301.219 547.812C317.353 513.99 336.961 481.87 360.219 452.469C367.378 443.419 374.864 434.645 382.75 426.219C386.773 421.921 390.934 417.757 395.125 413.625C403.974 404.9 413.227 396.553 422.875 388.719C447.463 368.752 474.413 351.758 502.875 337.875C541.769 318.903 583.3 305.687 625.688 297.188C685.303 285.233 746.425 282.549 807.062 285.156C810.623 285.296 813.61 282.529 813.75 278.969C813.89 275.408 811.123 272.421 807.562 272.281C792.025 271.73 776.444 271.524 760.875 271.719Z" fill="#ab1887" stroke="none"/>
</g>
</g>
</g>
</svg>
