<?xml version="1.0" encoding="UTF-8" standalone="no"?>
<!DOCTYPE svg PUBLIC "-//W3C//DTD SVG 1.1//EN" "http://www.w3.org/Graphics/SVG/1.1/DTD/svg11.dtd">
<!-- Created with Vectornator (http://vectornator.io/) -->
<svg height="100%" stroke-miterlimit="10" style="fill-rule:nonzero;clip-rule:evenodd;stroke-linecap:round;stroke-linejoin:round;" version="1.1" viewBox="0 0 700 130" width="100%" xml:space="preserve" xmlns="http://www.w3.org/2000/svg" xmlns:vectornator="http://vectornator.io" xmlns:xlink="http://www.w3.org/1999/xlink">
<defs>
<clipPath id="TextBounds">
<rect height="76.0172" width="520.025" x="124.144" y="18.2977"/>
</clipPath>
</defs>
<g id="Layer-1" vectornator:layerName="Layer 1">
<path d="M683.171 3.41677C654.954 3.41677 91.9505 2.81317 88.781 3.41677C80.04 5.08146 83.4281 111.078 88.781 112.026C93.4337 112.85 670.352 112.026 683.171 112.026C693.448 112.026 687.693 3.41677 683.171 3.41677Z" fill="#612452" fill-rule="nonzero" opacity="1" stroke="none"/>
<g fill="#ffffff" opacity="1" stroke="none">
<path clip-path="url(#TextBounds)" d="M150.052 44.4981C150.052 42.6855 149.867 41.2437 149.496 40.1726C149.125 39.1015 148.559 38.2879 147.797 37.7318C147.034 37.1756 146.046 36.8152 144.831 36.6504C143.615 36.4856 142.163 36.4032 140.474 36.4032C140.351 42.0058 140.289 47.6084 140.289 53.211C140.536 53.2522 140.773 53.2831 140.999 53.3037C141.226 53.3243 141.442 53.3346 141.648 53.3346C144.367 53.3346 146.447 52.6034 147.889 51.1409C149.331 49.6785 150.052 47.4642 150.052 44.4981ZM140.289 55.8681L140.289 58.4017C140.289 61.8209 140.33 64.8591 140.412 67.5162C140.495 70.1733 140.618 72.7789 140.783 75.333C140.083 75.2507 139.321 75.2095 138.497 75.2095C137.673 75.2095 136.746 75.2095 135.716 75.2095C134.686 75.2095 133.759 75.2095 132.935 75.2095C132.111 75.2095 131.349 75.2507 130.649 75.333C130.814 72.7789 130.937 70.1733 131.02 67.5162C131.102 64.8591 131.143 61.8209 131.143 58.4017L131.143 49.9978C131.143 46.5785 131.102 43.5403 131.02 40.8832C130.937 38.2261 130.814 35.5587 130.649 32.881C131.349 32.9634 132.111 33.0355 132.935 33.0973C133.759 33.1591 134.686 33.19 135.716 33.19C136.828 33.19 138.095 33.1385 139.516 33.0355C140.938 32.9325 142.699 32.881 144.8 32.881C146.365 32.881 147.704 32.9222 148.816 33.0046C149.928 33.087 150.886 33.2105 151.69 33.3753C152.493 33.5401 153.193 33.7564 153.791 34.0242C154.388 34.2919 154.954 34.6112 155.49 34.982C156.726 35.8883 157.704 37.0108 158.425 38.3497C159.146 39.6886 159.506 41.2849 159.506 43.1387C159.506 46.146 158.683 48.5971 157.035 50.4921C155.387 52.3871 153.018 53.726 149.928 54.5087C151.906 58.0103 154.027 61.5016 156.293 64.9827C158.559 68.4637 160.825 71.9138 163.09 75.333C162.143 75.2507 161.216 75.2095 160.31 75.2095C159.403 75.2095 158.477 75.2095 157.529 75.2095C156.582 75.2095 155.644 75.2095 154.717 75.2095C153.791 75.2095 152.853 75.2507 151.906 75.333L140.845 55.8681L140.289 55.8681Z"/>
<path clip-path="url(#TextBounds)" d="M174.584 60.5644C174.584 62.2123 174.749 63.7571 175.078 65.1989C175.408 66.6408 175.913 67.8869 176.592 68.9374C177.272 69.9879 178.137 70.8118 179.188 71.4092C180.238 72.0065 181.464 72.3052 182.864 72.3052C185.707 72.3052 188.24 71.3783 190.465 69.5245L191.206 70.0806L189.847 73.541C188.817 74.3238 187.581 74.952 186.139 75.4257C184.698 75.8995 182.803 76.1364 180.454 76.1364C178.436 76.1364 176.52 75.8583 174.708 75.3022C172.895 74.746 171.299 73.8294 169.919 72.5523C168.539 71.2753 167.447 69.6584 166.644 67.7016C165.84 65.7448 165.439 63.4069 165.439 60.688C165.439 58.0103 165.799 55.6827 166.52 53.7054C167.241 51.728 168.24 50.0801 169.517 48.7619C170.794 47.4436 172.308 46.4549 174.059 45.7958C175.81 45.1367 177.715 44.8071 179.775 44.8071C183.853 44.8071 186.974 46.0018 189.136 48.3911C191.299 50.7805 192.381 54.1585 192.381 58.5252L192.381 59.8229C192.381 60.1937 192.36 60.4408 192.319 60.5644L174.584 60.5644ZM184.1 57.7837C184.018 54.6941 183.637 52.2223 182.957 50.3685C182.277 48.5147 181.134 47.5878 179.528 47.5878C178.621 47.5878 177.859 47.8968 177.241 48.5147C176.623 49.1326 176.129 49.9257 175.758 50.8938C175.387 51.8619 175.109 52.9535 174.924 54.1688C174.739 55.3841 174.625 56.5891 174.584 57.7837L184.1 57.7837Z"/>
<path clip-path="url(#TextBounds)" d="M213.823 45.9194C213.699 46.5373 213.637 47.0935 213.637 47.5878C213.637 48.1234 213.699 48.6383 213.823 49.1326L208.385 49.0091C208.303 49.9566 208.231 51.0482 208.169 52.2841C208.107 53.52 208.066 54.7764 208.045 56.0535C208.025 57.3306 208.004 58.5664 207.983 59.7611C207.963 60.9558 207.952 61.9651 207.952 62.789C207.952 64.9312 208.004 66.6614 208.107 67.9796C208.21 69.2979 208.385 70.3072 208.632 71.0075C208.879 71.7078 209.23 72.1816 209.683 72.4288C210.136 72.6759 210.713 72.7995 211.413 72.7995C212.196 72.7995 212.772 72.748 213.143 72.645C213.514 72.542 213.885 72.3876 214.255 72.1816L214.255 74.7151C213.431 75.0859 212.402 75.4154 211.166 75.7038C209.93 75.9922 208.715 76.1364 207.52 76.1364C202.288 76.1364 199.672 73.0055 199.672 66.7438C199.672 65.5491 199.693 64.1999 199.734 62.6963C199.775 61.1927 199.827 59.6478 199.888 58.0618C199.95 56.4758 200.002 54.9103 200.043 53.3655C200.084 51.8207 200.105 50.3891 200.105 49.0709L195.779 49.1326C195.903 48.6383 195.965 48.1234 195.965 47.5878C195.965 47.0935 195.903 46.5373 195.779 45.9194L200.105 46.1048C200.105 44.8277 200.084 43.633 200.043 42.5208C200.002 41.4085 199.94 40.0696 199.858 38.5042C201.299 37.9274 202.721 37.3198 204.121 36.6813C205.522 36.0427 206.923 35.3733 208.323 34.673L208.941 35.1055C208.859 35.7647 208.787 36.5371 208.725 37.4228C208.663 38.3085 208.601 39.2354 208.54 40.2035C208.478 41.1716 208.437 42.1603 208.416 43.1696C208.395 44.1789 208.385 45.1367 208.385 46.043L213.823 45.9194Z"/>
<path clip-path="url(#TextBounds)" d="M237.181 70.8839C236.027 72.6141 234.678 73.9221 233.133 74.8078C231.588 75.6935 229.827 76.1364 227.85 76.1364C224.76 76.1364 222.381 75.2713 220.713 73.541C219.044 71.8108 218.21 68.9477 218.21 64.9518C218.21 62.8508 218.251 60.997 218.334 59.3904C218.416 57.7837 218.457 56.1771 218.457 54.5705C218.457 53.2522 218.426 51.8207 218.365 50.2758C218.303 48.731 218.231 47.1759 218.148 45.6104C218.684 45.6928 219.364 45.7649 220.188 45.8267C221.011 45.8885 221.877 45.9194 222.783 45.9194C223.689 45.9194 224.554 45.8885 225.378 45.8267C226.202 45.7649 226.882 45.6928 227.417 45.6104C227.129 47.835 226.944 50.4097 226.861 53.3346C226.779 56.2595 226.738 59.5963 226.738 63.3451C226.738 65.9405 227.181 67.8457 228.066 69.061C228.952 70.2763 230.198 70.8839 231.805 70.8839C233.659 70.8839 235.018 70.0806 235.883 68.474C236.748 66.8674 237.181 64.6428 237.181 61.8003L237.181 59.3286C237.181 56.8156 237.15 54.4572 237.088 52.2532C237.026 50.0493 236.892 47.835 236.686 45.6104C237.84 45.8164 239.385 45.9194 241.321 45.9194C242.268 45.9194 243.134 45.8885 243.916 45.8267C244.699 45.7649 245.379 45.6928 245.955 45.6104C245.749 47.835 245.616 50.0493 245.554 52.2532C245.492 54.4572 245.461 56.8156 245.461 59.3286L245.461 61.8003C245.461 64.3132 245.492 66.682 245.554 68.9065C245.616 71.1311 245.749 73.2733 245.955 75.333C245.214 75.2507 244.483 75.2095 243.762 75.2095C243.041 75.2095 242.31 75.2095 241.568 75.2095C240.827 75.2095 240.095 75.2095 239.374 75.2095C238.654 75.2095 237.881 75.2507 237.057 75.333L237.304 70.8839L237.181 70.8839Z"/>
<path clip-path="url(#TextBounds)" d="M261.404 53.2728C262.475 50.4303 263.773 48.3396 265.297 47.0008C266.821 45.6619 268.634 44.9925 270.735 44.9925C270.941 44.9925 271.116 45.0028 271.26 45.0234C271.404 45.044 271.558 45.0543 271.723 45.0543C271.6 45.6722 271.507 46.3313 271.445 47.0317C271.383 47.732 271.353 48.5559 271.353 49.5034L271.353 51.4808C271.353 51.8104 271.353 52.1605 271.353 52.5313C271.353 52.902 271.373 53.2522 271.414 53.5818L270.858 54.0761C270.446 53.8289 269.983 53.623 269.468 53.4582C268.953 53.2934 268.366 53.211 267.707 53.211C265.853 53.211 264.39 53.8186 263.319 55.0339C262.248 56.2492 261.713 57.6807 261.713 59.3286L261.713 61.8003C261.713 64.3132 261.744 66.682 261.805 68.9065C261.867 71.1311 262.001 73.2733 262.207 75.333C261.672 75.2507 261.002 75.2095 260.199 75.2095C259.395 75.2095 258.52 75.2095 257.573 75.2095C256.625 75.2095 255.76 75.2095 254.977 75.2095C254.195 75.2095 253.515 75.2507 252.938 75.333C253.144 73.2733 253.278 71.1311 253.34 68.9065C253.402 66.682 253.432 64.3132 253.432 61.8003L253.432 59.3286C253.432 56.8156 253.402 54.4572 253.34 52.2532C253.278 50.0493 253.144 47.835 252.938 45.6104C253.638 45.6928 254.349 45.7649 255.07 45.8267C255.791 45.8885 256.501 45.9194 257.202 45.9194C257.902 45.9194 258.613 45.8885 259.334 45.8267C260.055 45.7649 260.765 45.6928 261.466 45.6104L261.28 53.1492L261.404 53.2728Z"/>
<path clip-path="url(#TextBounds)" d="M285.318 50.2449C286.471 48.5147 287.82 47.1759 289.365 46.2284C290.91 45.2809 292.671 44.8071 294.649 44.8071C297.738 44.8071 300.117 45.7031 301.786 47.4951C303.454 49.2871 304.288 52.1811 304.288 56.1771C304.288 58.2781 304.247 60.1319 304.165 61.7385C304.082 63.3451 304.041 64.9518 304.041 66.5584C304.041 67.8766 304.072 69.3082 304.134 70.853C304.196 72.3979 304.268 73.8912 304.35 75.333C303.815 75.2507 303.135 75.2095 302.311 75.2095C301.487 75.2095 300.622 75.2095 299.716 75.2095C298.809 75.2095 297.944 75.2095 297.12 75.2095C296.296 75.2095 295.617 75.2507 295.081 75.333C295.37 73.1909 295.555 70.6676 295.637 67.7634C295.72 64.8591 295.761 61.5325 295.761 57.7837C295.761 55.1884 295.318 53.2831 294.432 52.0678C293.547 50.8526 292.3 50.2449 290.694 50.2449C288.84 50.2449 287.481 51.0482 286.615 52.6549C285.75 54.2615 285.318 56.4861 285.318 59.3286L285.318 61.8003C285.318 64.3132 285.349 66.682 285.411 68.9065C285.472 71.1311 285.606 73.2733 285.812 75.333C285.277 75.2507 284.607 75.2095 283.804 75.2095C283.001 75.2095 282.125 75.2095 281.178 75.2095C280.23 75.2095 279.365 75.2095 278.582 75.2095C277.8 75.2095 277.12 75.2507 276.543 75.333C276.749 73.2733 276.883 71.1311 276.945 68.9065C277.007 66.682 277.038 64.3132 277.038 61.8003L277.038 59.3286C277.038 56.8156 277.007 54.4572 276.945 52.2532C276.883 50.0493 276.749 47.835 276.543 45.6104C277.285 45.6928 278.016 45.7649 278.737 45.8267C279.458 45.8885 280.189 45.9194 280.93 45.9194C281.672 45.9194 282.403 45.8885 283.124 45.8267C283.845 45.7649 284.617 45.6928 285.441 45.6104L285.194 50.2449L285.318 50.2449Z"/>
<path clip-path="url(#TextBounds)" d="M344.331 45.9194C344.207 46.5373 344.145 47.0935 344.145 47.5878C344.145 48.1234 344.207 48.6383 344.331 49.1326L338.893 49.0091C338.81 49.9566 338.738 51.0482 338.676 52.2841C338.615 53.52 338.573 54.7764 338.553 56.0535C338.532 57.3306 338.512 58.5664 338.491 59.7611C338.47 60.9558 338.46 61.9651 338.46 62.789C338.46 64.9312 338.512 66.6614 338.615 67.9796C338.718 69.2979 338.893 70.3072 339.14 71.0075C339.387 71.7078 339.737 72.1816 340.19 72.4288C340.644 72.6759 341.22 72.7995 341.921 72.7995C342.703 72.7995 343.28 72.748 343.651 72.645C344.022 72.542 344.392 72.3876 344.763 72.1816L344.763 74.7151C343.939 75.0859 342.909 75.4154 341.673 75.7038C340.438 75.9922 339.222 76.1364 338.028 76.1364C332.796 76.1364 330.18 73.0055 330.18 66.7438C330.18 65.5491 330.2 64.1999 330.242 62.6963C330.283 61.1927 330.334 59.6478 330.396 58.0618C330.458 56.4758 330.509 54.9103 330.551 53.3655C330.592 51.8207 330.612 50.3891 330.612 49.0709L326.287 49.1326C326.41 48.6383 326.472 48.1234 326.472 47.5878C326.472 47.0935 326.41 46.5373 326.287 45.9194L330.612 46.1048C330.612 44.8277 330.592 43.633 330.551 42.5208C330.509 41.4085 330.448 40.0696 330.365 38.5042C331.807 37.9274 333.228 37.3198 334.629 36.6813C336.03 36.0427 337.43 35.3733 338.831 34.673L339.449 35.1055C339.366 35.7647 339.294 36.5371 339.233 37.4228C339.171 38.3085 339.109 39.2354 339.047 40.2035C338.985 41.1716 338.944 42.1603 338.924 43.1696C338.903 44.1789 338.893 45.1367 338.893 46.043L344.331 45.9194Z"/>
<path clip-path="url(#TextBounds)" d="M368.554 59.0196C368.554 55.3944 368.1 52.5828 367.194 50.5848C366.288 48.5868 364.784 47.5878 362.683 47.5878C360.788 47.5878 359.295 48.7001 358.203 50.9247C357.111 53.1492 356.566 56.6302 356.566 61.3677C356.566 63.098 356.669 64.7046 356.875 66.1876C357.081 67.6707 357.42 68.958 357.894 70.0497C358.368 71.1414 358.986 71.9962 359.748 72.6141C360.51 73.2321 361.468 73.541 362.621 73.541C366.576 73.541 368.554 68.7006 368.554 59.0196ZM347.42 61.3059C347.42 58.5458 347.842 56.1359 348.687 54.0761C349.531 52.0163 350.654 50.2964 352.055 48.9164C353.455 47.5363 355.072 46.5064 356.905 45.8267C358.739 45.147 360.623 44.8071 362.56 44.8071C367.379 44.8071 371.108 46.1666 373.744 48.8855C376.381 51.6044 377.699 55.2914 377.699 59.9465C377.699 62.4594 377.328 64.7252 376.587 66.7438C375.845 68.7624 374.805 70.4823 373.466 71.9035C372.127 73.3248 370.531 74.3856 368.677 75.0859C366.823 75.7862 364.784 76.1364 362.56 76.1364C360.706 76.1364 358.883 75.8892 357.091 75.3948C355.299 74.9005 353.682 74.0663 352.24 72.8922C350.798 71.7181 349.634 70.1836 348.749 68.2886C347.863 66.3936 347.42 64.0661 347.42 61.3059Z"/>
<path clip-path="url(#TextBounds)" d="M420.089 59.0196C420.089 55.3944 419.636 52.5828 418.73 50.5848C417.823 48.5868 416.32 47.5878 414.219 47.5878C412.324 47.5878 410.831 48.7001 409.739 50.9247C408.647 53.1492 408.101 56.6302 408.101 61.3677C408.101 63.098 408.204 64.7046 408.41 66.1876C408.616 67.6707 408.956 68.958 409.43 70.0497C409.904 71.1414 410.522 71.9962 411.284 72.6141C412.046 73.2321 413.004 73.541 414.157 73.541C418.112 73.541 420.089 68.7006 420.089 59.0196ZM398.956 61.3059C398.956 58.5458 399.378 56.1359 400.223 54.0761C401.067 52.0163 402.19 50.2964 403.59 48.9164C404.991 47.5363 406.608 46.5064 408.441 45.8267C410.274 45.147 412.159 44.8071 414.095 44.8071C418.915 44.8071 422.643 46.1666 425.28 48.8855C427.916 51.6044 429.235 55.2914 429.235 59.9465C429.235 62.4594 428.864 64.7252 428.122 66.7438C427.381 68.7624 426.341 70.4823 425.002 71.9035C423.663 73.3248 422.067 74.3856 420.213 75.0859C418.359 75.7862 416.32 76.1364 414.095 76.1364C412.241 76.1364 410.419 75.8892 408.627 75.3948C406.835 74.9005 405.218 74.0663 403.776 72.8922C402.334 71.7181 401.17 70.1836 400.284 68.2886C399.399 66.3936 398.956 64.0661 398.956 61.3059Z"/>
<path clip-path="url(#TextBounds)" d="M447.958 67.2381C449.276 63.6129 450.543 60.0083 451.758 56.4243C452.974 52.8403 454.179 49.2356 455.373 45.6104C455.826 45.6928 456.259 45.7649 456.671 45.8267C457.083 45.8885 457.495 45.9194 457.907 45.9194C458.319 45.9194 458.731 45.8885 459.143 45.8267C459.555 45.7649 460.008 45.6928 460.502 45.6104C459.843 47.2171 459.04 49.0812 458.092 51.2027C457.145 53.3243 456.146 55.6519 455.095 58.1854C454.045 60.7189 452.974 63.4378 451.882 66.3421C450.79 69.2464 449.771 72.2434 448.823 75.333C448.246 75.2507 447.69 75.2095 447.155 75.2095C446.619 75.2095 446.063 75.2095 445.486 75.2095C444.91 75.2095 444.353 75.2095 443.818 75.2095C443.282 75.2095 442.726 75.2507 442.149 75.333C441.326 72.9849 440.409 70.3896 439.4 67.5471C438.39 64.7046 437.391 61.9136 436.403 59.1741C435.414 56.4346 434.487 53.8701 433.622 51.4808C432.757 49.0915 432.036 47.1347 431.459 45.6104C432.324 45.6928 433.159 45.7649 433.962 45.8267C434.765 45.8885 435.558 45.9194 436.341 45.9194C437.124 45.9194 437.896 45.8885 438.658 45.8267C439.42 45.7649 440.193 45.6928 440.975 45.6104C442.088 49.2356 443.21 52.8403 444.343 56.4243C445.476 60.0083 446.64 63.6129 447.834 67.2381L447.958 67.2381Z"/>
<path clip-path="url(#TextBounds)" d="M471.872 60.5644C471.872 62.2123 472.037 63.7571 472.366 65.1989C472.696 66.6408 473.201 67.8869 473.88 68.9374C474.56 69.9879 475.425 70.8118 476.476 71.4092C477.526 72.0065 478.752 72.3052 480.152 72.3052C482.995 72.3052 485.528 71.3783 487.753 69.5245L488.495 70.0806L487.135 73.541C486.105 74.3238 484.869 74.952 483.427 75.4257C481.986 75.8995 480.091 76.1364 477.742 76.1364C475.724 76.1364 473.808 75.8583 471.996 75.3022C470.183 74.746 468.587 73.8294 467.207 72.5523C465.827 71.2753 464.735 69.6584 463.932 67.7016C463.128 65.7448 462.727 63.4069 462.727 60.688C462.727 58.0103 463.087 55.6827 463.808 53.7054C464.529 51.728 465.528 50.0801 466.805 48.7619C468.082 47.4436 469.596 46.4549 471.347 45.7958C473.098 45.1367 475.003 44.8071 477.063 44.8071C481.141 44.8071 484.262 46.0018 486.424 48.3911C488.587 50.7805 489.669 54.1585 489.669 58.5252L489.669 59.8229C489.669 60.1937 489.648 60.4408 489.607 60.5644L471.872 60.5644ZM481.388 57.7837C481.306 54.6941 480.925 52.2223 480.245 50.3685C479.565 48.5147 478.422 47.5878 476.816 47.5878C475.909 47.5878 475.147 47.8968 474.529 48.5147C473.911 49.1326 473.417 49.9257 473.046 50.8938C472.675 51.8619 472.397 52.9535 472.212 54.1688C472.027 55.3841 471.913 56.5891 471.872 57.7837L481.388 57.7837Z"/>
<path clip-path="url(#TextBounds)" d="M503.757 53.2728C504.829 50.4303 506.126 48.3396 507.65 47.0008C509.175 45.6619 510.987 44.9925 513.088 44.9925C513.294 44.9925 513.469 45.0028 513.614 45.0234C513.758 45.044 513.912 45.0543 514.077 45.0543C513.953 45.6722 513.861 46.3313 513.799 47.0317C513.737 47.732 513.706 48.5559 513.706 49.5034L513.706 51.4808C513.706 51.8104 513.706 52.1605 513.706 52.5313C513.706 52.902 513.727 53.2522 513.768 53.5818L513.212 54.0761C512.8 53.8289 512.336 53.623 511.822 53.4582C511.307 53.2934 510.72 53.211 510.06 53.211C508.207 53.211 506.744 53.8186 505.673 55.0339C504.602 56.2492 504.066 57.6807 504.066 59.3286L504.066 61.8003C504.066 64.3132 504.097 66.682 504.159 68.9065C504.221 71.1311 504.355 73.2733 504.561 75.333C504.025 75.2507 503.356 75.2095 502.553 75.2095C501.749 75.2095 500.874 75.2095 499.926 75.2095C498.979 75.2095 498.114 75.2095 497.331 75.2095C496.548 75.2095 495.869 75.2507 495.292 75.333C495.498 73.2733 495.632 71.1311 495.693 68.9065C495.755 66.682 495.786 64.3132 495.786 61.8003L495.786 59.3286C495.786 56.8156 495.755 54.4572 495.693 52.2532C495.632 50.0493 495.498 47.835 495.292 45.6104C495.992 45.6928 496.703 45.7649 497.424 45.8267C498.145 45.8885 498.855 45.9194 499.556 45.9194C500.256 45.9194 500.966 45.8885 501.687 45.8267C502.408 45.7649 503.119 45.6928 503.819 45.6104L503.634 53.1492L503.757 53.2728Z"/>
<path clip-path="url(#TextBounds)" d="M533.048 67.2381C534.366 63.6129 535.633 60.0083 536.848 56.4243C538.063 52.8403 539.268 49.2356 540.463 45.6104C540.916 45.6928 541.348 45.7649 541.76 45.8267C542.172 45.8885 542.584 45.9194 542.996 45.9194C543.408 45.9194 543.82 45.8885 544.232 45.8267C544.644 45.7649 545.097 45.6928 545.592 45.6104C544.932 47.2171 544.129 49.0812 543.182 51.2027C542.234 53.3243 541.235 55.6519 540.185 58.1854C539.134 60.7189 538.063 63.4378 536.971 66.3421C535.88 69.2464 534.86 72.2434 533.913 75.333C533.336 75.2507 532.78 75.2095 532.244 75.2095C531.709 75.2095 531.153 75.2095 530.576 75.2095C529.999 75.2095 529.443 75.2095 528.907 75.2095C528.372 75.2095 527.816 75.2507 527.239 75.333C526.415 72.9849 525.498 70.3896 524.489 67.5471C523.48 64.7046 522.481 61.9136 521.492 59.1741C520.503 56.4346 519.577 53.8701 518.711 51.4808C517.846 49.0915 517.125 47.1347 516.549 45.6104C517.414 45.6928 518.248 45.7649 519.051 45.8267C519.855 45.8885 520.648 45.9194 521.43 45.9194C522.213 45.9194 522.986 45.8885 523.748 45.8267C524.51 45.7649 525.282 45.6928 526.065 45.6104C527.177 49.2356 528.3 52.8403 529.433 56.4243C530.566 60.0083 531.729 63.6129 532.924 67.2381L533.048 67.2381Z"/>
<path clip-path="url(#TextBounds)" d="M550.226 33.9315C550.226 32.572 550.7 31.4185 551.647 30.471C552.595 29.5235 553.748 29.0498 555.108 29.0498C556.467 29.0498 557.621 29.5235 558.568 30.471C559.516 31.4185 559.989 32.572 559.989 33.9315C559.989 35.2909 559.516 36.4444 558.568 37.3919C557.621 38.3394 556.467 38.8132 555.108 38.8132C553.748 38.8132 552.595 38.3394 551.647 37.3919C550.7 36.4444 550.226 35.2909 550.226 33.9315ZM550.968 59.3286C550.968 56.8156 550.937 54.4572 550.875 52.2532C550.813 50.0493 550.679 47.835 550.473 45.6104C551.05 45.6928 551.73 45.7649 552.512 45.8267C553.295 45.8885 554.16 45.9194 555.108 45.9194C557.044 45.9194 558.589 45.8164 559.742 45.6104C559.536 47.835 559.402 50.0493 559.341 52.2532C559.279 54.4572 559.248 56.8156 559.248 59.3286L559.248 61.8003C559.248 64.3132 559.279 66.682 559.341 68.9065C559.402 71.1311 559.536 73.2733 559.742 75.333C559.207 75.2507 558.537 75.2095 557.734 75.2095C556.931 75.2095 556.055 75.2095 555.108 75.2095C554.16 75.2095 553.295 75.2095 552.512 75.2095C551.73 75.2095 551.05 75.2507 550.473 75.333C550.679 73.2733 550.813 71.1311 550.875 68.9065C550.937 66.682 550.968 64.3132 550.968 61.8003L550.968 59.3286Z"/>
<path clip-path="url(#TextBounds)" d="M574.882 60.5644C574.882 62.2123 575.046 63.7571 575.376 65.1989C575.706 66.6408 576.21 67.8869 576.89 68.9374C577.57 69.9879 578.435 70.8118 579.485 71.4092C580.536 72.0065 581.761 72.3052 583.162 72.3052C586.004 72.3052 588.538 71.3783 590.763 69.5245L591.504 70.0806L590.145 73.541C589.115 74.3238 587.879 74.952 586.437 75.4257C584.995 75.8995 583.1 76.1364 580.752 76.1364C578.733 76.1364 576.818 75.8583 575.005 75.3022C573.193 74.746 571.596 73.8294 570.216 72.5523C568.836 71.2753 567.745 69.6584 566.941 67.7016C566.138 65.7448 565.736 63.4069 565.736 60.688C565.736 58.0103 566.097 55.6827 566.818 53.7054C567.539 51.728 568.538 50.0801 569.815 48.7619C571.092 47.4436 572.606 46.4549 574.356 45.7958C576.107 45.1367 578.013 44.8071 580.072 44.8071C584.151 44.8071 587.271 46.0018 589.434 48.3911C591.597 50.7805 592.678 54.1585 592.678 58.5252L592.678 59.8229C592.678 60.1937 592.658 60.4408 592.616 60.5644L574.882 60.5644ZM584.398 57.7837C584.315 54.6941 583.934 52.2223 583.255 50.3685C582.575 48.5147 581.432 47.5878 579.825 47.5878C578.919 47.5878 578.157 47.8968 577.539 48.5147C576.921 49.1326 576.427 49.9257 576.056 50.8938C575.685 51.8619 575.407 52.9535 575.222 54.1688C575.036 55.3841 574.923 56.5891 574.882 57.7837L584.398 57.7837Z"/>
<path clip-path="url(#TextBounds)" d="M630.558 66.9909C632.823 59.8229 634.904 52.6961 636.799 45.6104C637.705 45.8164 638.508 45.9194 639.209 45.9194C639.621 45.9194 640.022 45.8885 640.414 45.8267C640.805 45.7649 641.268 45.6928 641.804 45.6104C641.516 46.146 641.124 47.0317 640.63 48.2675C640.136 49.5034 639.59 50.9659 638.992 52.6549C638.395 54.3439 637.756 56.1874 637.077 58.1854C636.397 60.1834 635.728 62.1917 635.068 64.2102C634.409 66.2288 633.76 68.2062 633.122 70.1424C632.483 72.0786 631.917 73.8088 631.423 75.333C630.846 75.2507 630.279 75.2095 629.723 75.2095C629.167 75.2095 628.601 75.2095 628.024 75.2095C627.447 75.2095 626.871 75.2095 626.294 75.2095C625.717 75.2095 625.14 75.2507 624.564 75.333C624.069 73.7676 623.554 72.0889 623.019 70.2969C622.483 68.5049 621.948 66.7335 621.412 64.9827C620.877 63.2318 620.362 61.5222 619.867 59.8538C619.373 58.1854 618.92 56.6302 618.508 55.1884L618.384 55.1884C617.313 58.6488 616.252 62.0475 615.202 65.3843C614.151 68.7212 613.152 72.0374 612.205 75.333C611.628 75.2507 611.041 75.2095 610.444 75.2095C609.846 75.2095 609.259 75.2095 608.683 75.2095C608.106 75.2095 607.509 75.2095 606.891 75.2095C606.273 75.2095 605.655 75.2507 605.037 75.333C604.584 73.8088 604.058 72.0477 603.461 70.0497C602.864 68.0517 602.236 66.0228 601.576 63.9631C600.917 61.9033 600.258 59.8641 599.599 57.8455C598.94 55.8269 598.332 53.9834 597.776 52.315C597.22 50.6466 596.736 49.215 596.324 48.0204C595.912 46.8257 595.624 46.0224 595.459 45.6104C596.365 45.6928 597.199 45.7649 597.962 45.8267C598.724 45.8885 599.496 45.9194 600.279 45.9194C601.02 45.9194 601.772 45.8885 602.534 45.8267C603.296 45.7649 604.048 45.6928 604.79 45.6104C605.778 49.1944 606.808 52.8711 607.879 56.6405C608.95 60.4099 609.96 63.8601 610.907 66.9909L611.031 66.9909C612.225 63.3657 613.317 59.8023 614.306 56.3007C615.295 52.7991 616.283 49.2356 617.272 45.6104C617.849 45.6928 618.425 45.7649 619.002 45.8267C619.579 45.8885 620.156 45.9194 620.732 45.9194C621.309 45.9194 621.886 45.8885 622.463 45.8267C623.039 45.7649 623.616 45.6928 624.193 45.6104C625.182 49.2356 626.191 52.7991 627.221 56.3007C628.251 59.8023 629.322 63.3657 630.434 66.9909L630.558 66.9909Z"/>
</g>
<g opacity="1">
<path d="M106.25 96.2702L122.321 102.192" fill="#b86ea6" fill-rule="nonzero" stroke="none"/>
<path d="M107.062 94.0312C105.831 93.5775 104.485 94.2062 104.031 95.4375C103.578 96.6688 104.206 98.0463 105.438 98.5C110.848 100.329 116.246 102.171 121.656 104C122.647 104.365 123.76 103.835 124.125 102.844C124.49 101.853 123.96 100.771 122.969 100.406C117.665 98.2874 112.366 96.1502 107.062 94.0312Z" fill="#c570af" stroke="none"/>
</g>
<g opacity="1">
<path d="M106.951 85.693L123.83 78.8075" fill="#b86ea6" fill-rule="nonzero" stroke="none"/>
<path d="M123.094 77.0312C117.409 79.1833 111.747 81.3479 106.062 83.5C104.847 83.9957 104.254 85.3787 104.75 86.5938C105.246 87.8088 106.629 88.4019 107.844 87.9062C113.411 85.468 118.995 83.032 124.562 80.5938C125.54 80.1948 125.993 79.0717 125.594 78.0938C125.195 77.1158 124.072 76.6323 123.094 77.0312Z" fill="#c570af" stroke="none"/>
</g>
<g opacity="1">
<path d="M100.903 74.4848L109.5 59.303" fill="#b86ea6" fill-rule="nonzero" stroke="none"/>
<path d="M109 57.4688C108.528 57.5994 108.104 57.9155 107.844 58.375C104.844 63.3595 101.844 68.328 98.8438 73.3125C98.1972 74.4544 98.5769 75.9159 99.7188 76.5625C100.861 77.2091 102.322 76.7981 102.969 75.6562C105.7 70.5195 108.425 65.3867 111.156 60.25C111.677 59.3309 111.357 58.1454 110.438 57.625C109.978 57.3648 109.472 57.3381 109 57.4688Z" fill="#c570af" stroke="none"/>
</g>
<g opacity="1">
<path d="M88.7307 70.5498L84.3548 54.2903" fill="#b86ea6" fill-rule="nonzero" stroke="none"/>
<path d="M83.8438 52.4375C82.8239 52.712 82.2255 53.7614 82.5 54.7812C83.8094 60.2412 85.1281 65.6963 86.4375 71.1562C86.7785 72.4234 88.0766 73.1848 89.3438 72.8438C90.6109 72.5027 91.3723 71.2046 91.0312 69.9375C89.4234 64.5578 87.7953 59.1609 86.1875 53.7812C85.913 52.7614 84.8636 52.163 83.8438 52.4375Z" fill="#c570af" stroke="none"/>
</g>
<g opacity="1">
<path d="M99.922 105.92L108.642 123.822" fill="#b86ea6" fill-rule="nonzero" stroke="none"/>
<path d="M100.688 103.688C100.113 103.489 99.4649 103.494 98.875 103.781C97.6953 104.356 97.2066 105.789 97.7812 106.969C100.827 112.869 103.892 118.756 106.938 124.656C107.4 125.606 108.519 125.994 109.469 125.531C110.418 125.069 110.838 123.95 110.375 123C107.607 116.965 104.83 110.91 102.062 104.875C101.775 104.285 101.262 103.886 100.688 103.688Z" fill="#c570af" stroke="none"/>
</g>
<path d="M13.9099 126.948C33.01 118.151 60.6137 105.301 60.6137 105.301C60.6137 105.301 59.7643 119.165 59.082 124.807C58.764 127.437 95.668 87.903 95.668 87.903C95.668 87.903 42.0711 85.638 43.9097 87.1743C50.4728 92.6581 58.5334 99.6842 58.5334 99.6842C58.5334 99.6842 32.3877 109.363 10.1764 117.429C7.73648 118.315 9.98388 128.756 13.9099 126.948Z" fill="#b86ea6" fill-rule="nonzero" opacity="1" stroke="none"/>
</g>
</svg>
